<svg width="588" height="692" viewBox="0 0 588 692" fill="none" xmlns="http://www.w3.org/2000/svg">
	<path fill-rule="evenodd" clip-rule="evenodd"
		d="M588 0.487305H0V691.404H588V0.487305ZM524.363 269.257C524.363 156.119 432.335 64.0731 319.216 64.0731H236.642V127.978H319.216C397.103 127.978 460.469 191.355 460.469 269.257C460.469 347.159 397.103 410.537 319.216 410.537H236.642V474.442H319.216C432.335 474.442 524.363 382.397 524.363 269.257ZM320.71 150.459L236.642 150.45V388.066L320.71 388.058C385.706 387.479 438.508 334.188 438.508 269.258C438.508 204.328 385.706 151.036 320.71 150.459ZM213.832 627.818H149.94V64.0792L213.832 64.0847V627.818ZM63.5853 627.82H127.48V64.0792L63.5853 64.0745V627.82Z"
		fill="#FFC300"></path>
</svg>
