<svg width="1440" height="882" viewBox="0 0 1440 882" fill="none" xmlns="http://www.w3.org/2000/svg">
<path fill-rule="evenodd" clip-rule="evenodd" d="M182.815 882H247.078V0H182.815V882ZM429.889 0V882H494.162V699.309H730.424C953.277 699.309 1134.58 517.97 1134.58 295.076C1134.58 178.789 1085.23 73.8147 1006.38 0H900.039C1002.49 58.7762 1071.74 169.296 1071.74 295.078C1071.74 480.858 920.666 633.336 734.699 634.991L494.162 635.016V0H429.889ZM1237.73 0C1288.36 86.7491 1317.4 187.585 1317.4 295.076C1317.4 614.235 1061.45 874.726 744.061 882H1440V0H1237.73Z" fill="black"/>
</svg>
