<?xml version="1.0" standalone="no"?>
<!DOCTYPE svg PUBLIC "-//W3C//DTD SVG 20010904//EN"
 "http://www.w3.org/TR/2001/REC-SVG-20010904/DTD/svg10.dtd">
<svg version="1.0" xmlns="http://www.w3.org/2000/svg"
 width="676.000000pt" height="676.000000pt" viewBox="0 0 676.000000 676.000000"
 preserveAspectRatio="xMidYMid meet">
<metadata>
Created by potrace 1.11, written by Peter Selinger 2001-2013
</metadata>
<g transform="translate(0.000000,676.000000) scale(0.100000,-0.100000)"
fill="#000000" stroke="none">
<path d="M620 3380 l0 -3380 360 0 360 0 1 873 c1 479 0 877 -1 882 -1 6 -1
39 0 75 1 36 2 72 1 80 0 8 0 44 0 80 1 36 1 72 0 80 0 8 0 44 0 80 1 36 1 72
0 80 0 8 0 44 0 80 1 36 1 72 0 80 0 8 0 44 0 80 1 36 1 72 0 80 0 8 0 44 0
80 1 36 1 72 0 80 0 8 0 44 0 80 1 36 1 72 1 80 0 8 0 620 0 1360 0 740 -1
1352 -1 1360 0 8 0 44 0 80 1 36 1 72 0 80 0 8 0 44 0 80 1 36 1 72 0 80 0 8
0 44 0 80 1 36 1 72 0 80 0 8 0 44 0 80 1 36 1 72 0 80 0 8 0 44 0 80 1 36 1
72 0 80 0 8 0 44 0 80 1 36 1 72 0 80 0 8 0 44 0 80 1 36 1 74 0 85 -1 11 -3
26 -3 33 -1 9 -80 12 -360 12 l-358 0 0 -3380z"/>
<path d="M1700 3380 l0 -3380 360 0 360 0 0 3380 0 3380 -360 0 -360 0 0
-3380z"/>
<path d="M2659 6708 c-1 -29 -1 -57 0 -63 2 -5 2 -110 1 -235 -1 -124 -2 -232
-1 -240 0 -8 1 -51 0 -95 l0 -80 538 -1 c296 -1 572 -4 613 -7 180 -16 309
-48 515 -127 56 -21 200 -99 274 -148 144 -95 288 -224 386 -347 26 -33 51
-62 55 -65 8 -6 154 -244 151 -248 -1 -1 5 -15 13 -30 70 -135 135 -364 153
-537 14 -136 4 -431 -17 -485 -1 -3 -2 -8 -2 -11 1 -3 -10 -48 -24 -100 -13
-52 -26 -101 -28 -109 -22 -85 -126 -297 -202 -411 -91 -136 -240 -300 -339
-374 -22 -17 -46 -36 -54 -43 -15 -14 -68 -51 -130 -89 -63 -39 -245 -130
-281 -141 -19 -6 -68 -22 -109 -36 -40 -15 -85 -28 -100 -31 -14 -3 -37 -7
-51 -10 -152 -34 -243 -38 -827 -39 l-533 0 -1 -215 c-1 -119 -1 -220 0 -225
1 -6 2 -62 1 -125 -1 -137 0 -194 4 -199 2 -1 25 -2 52 -2 27 0 60 0 74 -1 14
0 32 -1 40 0 8 0 76 0 150 0 74 -1 142 -1 150 0 8 0 35 0 60 0 44 0 57 0 83 2
24 2 356 0 376 -3 3 0 8 0 11 1 3 1 52 3 110 5 151 6 274 21 410 51 14 4 36 8
50 11 14 3 34 8 45 11 11 4 25 8 31 9 32 6 199 60 264 86 100 40 248 112 338
165 41 24 77 43 82 43 5 0 10 3 12 8 2 4 39 31 83 61 44 30 82 57 85 60 3 4
37 31 75 62 79 63 249 229 310 304 22 27 46 54 53 61 6 7 12 17 12 23 0 6 3
11 8 11 4 0 18 17 32 38 14 20 27 39 30 42 16 16 80 117 80 128 0 6 4 12 9 12
9 0 23 25 100 175 54 106 83 175 149 365 10 28 12 35 37 135 30 121 54 252 63
354 9 94 8 428 -1 496 -19 148 -39 257 -66 365 -26 101 -105 323 -124 348 -5
6 -7 12 -4 12 5 0 -78 167 -123 245 -28 50 -155 240 -170 255 -3 3 -23 28 -45
55 -106 134 -318 341 -425 415 -26 18 -121 87 -135 98 -25 20 -134 82 -143 82
-6 0 -12 4 -14 9 -4 11 -273 141 -291 141 -8 0 -17 3 -21 8 -4 4 -11 7 -14 8
-4 0 -20 6 -35 12 -15 7 -40 15 -55 18 -15 4 -31 10 -37 14 -5 4 -21 10 -35
13 -14 3 -52 13 -85 22 -65 19 -82 22 -135 31 -19 3 -39 8 -43 11 -4 2 -24 7
-45 9 -91 12 -109 15 -137 20 -16 3 -312 8 -657 11 l-628 5 -1 -54z"/>
<path d="M2790 5680 c0 -3 -25 -3 -56 -2 -31 2 -60 0 -65 -5 -6 -6 -12 -359
-8 -493 1 -8 1 -116 0 -240 0 -124 0 -232 0 -240 1 -8 1 -116 0 -240 0 -124 0
-232 1 -240 0 -8 0 -44 -1 -80 0 -36 0 -72 0 -80 1 -8 1 -116 0 -240 0 -124 0
-232 0 -240 1 -8 1 -116 0 -240 0 -124 -1 -278 0 -343 l0 -118 587 4 c323 2
601 7 617 11 17 4 50 12 75 17 65 14 180 48 215 63 17 7 51 22 77 32 27 11 48
22 48 27 0 4 9 7 19 7 11 0 21 3 23 8 2 4 19 16 38 26 66 36 193 131 261 196
79 76 194 213 212 252 6 16 15 28 18 28 10 0 107 203 132 280 37 109 48 156
64 265 9 59 9 313 0 370 -3 22 -8 57 -12 79 -3 21 -8 42 -11 47 -3 5 -7 22
-10 37 -14 83 -103 294 -159 376 -14 20 -25 41 -25 46 0 6 -4 10 -8 10 -4 0
-15 13 -25 29 -35 59 -187 220 -267 282 -178 140 -383 235 -599 279 -83 17
-230 33 -281 31 -35 -1 -109 0 -162 2 -32 1 -58 -1 -58 -6 0 -4 -4 -5 -10 -2
-5 3 -35 5 -67 5 -61 -1 -105 0 -190 3 -29 2 -53 -1 -53 -6 0 -4 -4 -5 -10 -2
-5 3 -35 5 -67 5 -61 -1 -105 0 -190 3 -29 2 -53 0 -53 -3z"/>
</g>
</svg>
